Coordinates
datacolumns 6
datarows 150
range 84.64 86.13
inDegrees=yes
Units are S.I. units (second, meters, Newtons, ...)
If the header above contains a line with 'inDegrees', this indicates whether rotational values are in degrees (yes) or radians (no).
endheader
time	foot_tx	hip_flexion_r	knee_angle_r	ankle_angle_r	lumbar
84.64	0.28473717	64.73316065	-58.12519307	-5.85082871	-6.29133334
84.65	0.28475212	64.69281788	-58.1200905	-5.85490868	-6.4550652
84.66	0.28473485	64.75598825	-58.12072955	-5.8598381	-6.51212678
84.67	0.28473436	64.7010495	-58.11512196	-5.86291164	-6.72894262
84.68	0.28472926	64.70042931	-58.10846452	-5.86954019	-6.89990451
84.69	0.28472536	64.70119847	-58.09907723	-5.87803171	-7.09057844
84.7	0.28471439	64.70537283	-58.08820553	-5.88708599	-7.30135364
84.71	0.28470579	64.71430719	-58.0743908	-5.89817179	-7.53080938
84.72	0.28468962	64.73082096	-58.05884243	-5.90989168	-7.77844259
84.73	0.28467311	64.75763118	-58.04083478	-5.92314919	-8.04104222
84.74	0.28465532	64.79829412	-58.02082323	-5.93761224	-8.31540312
84.75	0.28464368	64.84852345	-57.99550571	-5.95512601	-8.60776129
84.76	0.28460397	64.93005261	-57.97586885	-5.96810342	-8.89397338
84.77	0.28457609	65.02905433	-57.95179643	-5.98394564	-9.18876087
84.78	0.28454423	65.15240164	-57.92679462	-5.9996132	-9.48575482
84.79	0.28450928	65.30353465	-57.90198023	-6.01442199	-9.78086041
84.8	0.28447287	65.483974	-57.87719945	-6.0283196	-10.07271535
84.81	0.28443948	65.69557692	-57.85228853	-6.04149666	-10.35917804
84.82	0.28440382	65.97068456	-57.83043415	-6.05340306	-10.6018311
84.83	0.28434039	66.26769669	-57.81803629	-6.05582407	-10.85305567
84.84	0.2843343	66.57014159	-57.78814084	-6.06863602	-11.13075816
84.85	0.28428662	66.90221808	-57.77634833	-6.06605429	-11.40887284
84.86	0.28425271	67.25338049	-57.76260202	-6.06235229	-11.70031061
84.87	0.28422885	67.62497805	-57.74804688	-6.05647696	-12.00491889
84.88	0.28420587	68.12752279	-57.73540463	-6.05268435	-12.19111213
84.89	0.28418079	68.61052016	-57.72421223	-6.04167589	-12.44248891
84.9	0.28416162	69.1294032	-57.71362274	-6.02781582	-12.69247714
84.91	0.28414243	69.68367812	-57.70177699	-6.01128603	-12.94469927
84.92	0.28412701	70.27433056	-57.68801545	-5.99266612	-13.1985885
84.93	0.28411376	70.89935367	-57.6712657	-5.97195555	-13.45811916
84.94	0.28409146	71.56780915	-57.65465412	-5.94682085	-13.71342524
84.95	0.28406566	72.27593288	-57.6327924	-5.91988815	-13.97043185
84.96	0.2840474	73.02540304	-57.60257025	-5.89328896	-14.22583584
84.97	0.28400639	73.83284698	-57.57543511	-5.85876109	-14.45884
84.98	0.28396076	74.69134266	-57.54348527	-5.8207022	-14.67622405
84.99	0.28392638	75.60141753	-57.4997013	-5.78312083	-14.87485649
85	0.28386446	76.58362759	-57.45913402	-5.73497282	-15.02702216
85.01	0.28379152	77.62556729	-57.41637974	-5.67841369	-15.14314633
85.02	0.28370424	78.7418832	-57.37620225	-5.60994993	-15.19943553
85.03	0.28360609	79.92992909	-57.33797804	-5.52854644	-15.19333168
85.04	0.28349951	81.18966896	-57.30310849	-5.43204935	-15.11798336
85.05	0.28338794	82.51781839	-57.2730212	-5.31816632	-14.96999373
85.06	0.28327265	83.9076939	-57.25064289	-5.18361106	-14.74961278
85.07	0.28316198	85.35237574	-57.2349426	-5.02795752	-14.45705156
85.08	0.28306067	86.84474397	-57.23002181	-4.84780084	-14.0925558
85.09	0.28297279	88.36377728	-57.23665861	-4.64152142	-13.67394331
85.1	0.28290276	89.89362166	-57.25844033	-4.40657686	-13.21287473
85.11	0.28285988	91.42868582	-57.29489854	-4.14371265	-12.70838625
85.12	0.28284791	92.94689218	-57.35023331	-3.85089687	-12.18079159
85.13	0.28286771	94.43584979	-57.42842702	-3.52697713	-11.63875271
85.14	0.28292229	95.87552155	-57.5347825	-3.17037039	-11.1015306
85.15	0.28301514	97.25573723	-57.67212795	-2.78210163	-10.57621903
85.16	0.28314601	98.56573906	-57.84569089	-2.36154216	-10.07106955
85.17	0.28331355	99.79293432	-58.06029855	-1.9085929	-9.59734829
85.18	0.28351864	100.9327204	-58.31856442	-1.42477599	-9.1559883
85.19	0.28376015	101.9770077	-58.62321268	-0.91131154	-8.75282613
85.2	0.28403614	102.9132303	-58.97820901	-0.36815243	-8.39985643
85.21	0.28434575	103.7486083	-59.37710157	0.19904829	-8.08204843
85.22	0.28468776	104.4685409	-59.82298164	0.79042626	-7.81430004
85.23	0.28505901	105.0751139	-60.30740925	1.40077604	-7.58908106
85.24	0.28545726	105.5658926	-60.82277223	2.02574538	-7.40506652
85.25	0.2858825	105.9392885	-61.36029314	2.66122374	-7.25839326
85.26	0.28632793	106.1902636	-61.91161616	3.30361223	-7.15233457
85.27	0.28679205	106.301913	-62.46494708	3.94882746	-7.10481144
85.28	0.28726853	106.3436896	-63.002169	4.5864794	-7.02100371
85.29	0.28776124	106.2215774	-63.51857478	5.21839249	-7.02494126
85.3	0.28825181	105.9936614	-63.99966047	5.8382037	-7.0339433
85.31	0.28875029	105.6506801	-64.43293418	6.43977875	-7.06227824
85.32	0.28924403	105.1893152	-64.80882454	7.02068053	-7.11395717
85.33	0.28972979	104.61854	-65.11743772	7.57626565	-7.17795384
85.34	0.29020906	103.940767	-65.35290019	8.10368171	-7.25192034
85.35	0.29067187	103.158382	-65.50659523	8.59981459	-7.33546265
85.36	0.29112373	102.2686635	-65.57471226	9.06199044	-7.43417865
85.37	0.29155419	101.2855577	-65.55296783	9.48809216	-7.53258919
85.38	0.29197185	100.203095	-65.43947077	9.87615831	-7.64106585
85.39	0.29237545	99.03469444	-65.23261986	10.22437687	-7.74490477
85.4	0.29275014	97.76723294	-64.93422213	10.53503872	-7.86420362
85.41	0.29311625	96.41738075	-64.54493387	10.80513076	-7.97835473
85.42	0.29347372	94.9899486	-64.06416058	11.03357489	-8.08497088
85.43	0.29381448	93.48126464	-63.49715024	11.22356296	-8.19066059
85.44	0.29414407	91.89826465	-62.84618478	11.37502921	-8.2887186
85.45	0.29446466	90.24566249	-62.1150494	11.48914193	-8.37503847
85.46	0.2947751	88.52437252	-61.30793979	11.56804883	-8.45092733
85.47	0.29507907	86.74189466	-60.42834854	11.61261812	-8.50892814
85.48	0.29537467	84.89941343	-59.48073105	11.62541725	-8.55038545
85.49	0.29566203	82.9939009	-58.46975861	11.60901559	-8.58144014
85.5	0.29594139	81.03841393	-57.39647205	11.56330241	-8.58942634
85.51	0.29621416	79.0336214	-56.26472437	11.49019168	-8.57625107
85.52	0.29647858	76.97340597	-55.07692284	11.39146786	-8.55318548
85.53	0.29673631	74.86860542	-53.83341793	11.26655714	-8.51073606
85.54	0.29698524	72.71273567	-52.53515027	11.11629798	-8.46092553
85.55	0.29722804	70.51116141	-51.18148101	10.93956841	-8.40161554
85.56	0.29746469	68.26206183	-49.7716676	10.73563143	-8.33963117
85.57	0.29769591	65.96612953	-48.30454307	10.50316188	-8.27911611
85.58	0.29792269	63.62366365	-46.77885638	10.24064362	-8.2249037
85.59	0.29814659	61.23692778	-45.19360026	9.94637105	-8.17977491
85.6	0.29836598	58.80562272	-43.54869189	9.61947129	-8.15002619
85.61	0.29858259	56.33581936	-41.84513935	9.25892606	-8.13469807
85.62	0.29879546	53.83128904	-40.0852323	8.86470631	-8.13559549
85.63	0.29900099	51.29981374	-38.27332879	8.43800097	-8.15032922
85.64	0.29919596	48.74941456	-36.41696639	7.9817588	-8.17707907
85.65	0.29937581	46.20495506	-34.52507784	7.49884799	-8.1945447
85.66	0.29953332	43.67870768	-32.61027842	6.9953247	-8.19720075
85.67	0.29965997	41.19052517	-30.68753207	6.47834548	-8.17167866
85.68	0.29974744	38.76406987	-28.77377188	5.95602455	-8.10135306
85.69	0.299786	36.41996319	-26.88697827	5.43752427	-7.97380483
85.7	0.29976943	34.1814937	-25.04513718	4.93167687	-7.77417048
85.71	0.29969322	32.05993807	-23.26420328	4.44692163	-7.5008365
85.72	0.29955626	30.07584548	-21.55827359	3.98997828	-7.14119118
85.73	0.29935961	28.22549673	-19.93696657	3.56658342	-6.70816027
85.74	0.29910866	26.51088438	-18.40625939	3.17989685	-6.20617834
85.75	0.29881545	24.93218663	-16.96961129	2.83115079	-5.64066492
85.76	0.29847637	23.48270806	-15.62433651	2.5205075	-5.0188263
85.77	0.29811318	22.14600004	-14.36909487	2.2467953	-4.36242521
85.78	0.29773045	20.91458183	-13.19968468	2.00845397	-3.67851904
85.79	0.29733522	19.78191371	-12.11030039	1.80256457	-2.97267635
85.8	0.2969398	18.73347215	-11.09419637	1.62581859	-2.25865493
85.81	0.29654898	17.76774447	-10.14970962	1.47685049	-1.53869389
85.82	0.29615663	16.87494706	-9.2701832	1.35326348	-0.81972586
85.83	0.29578051	16.04823944	-8.44842142	1.24990143	-0.10757733
85.84	0.29541759	15.32171068	-7.68660717	1.16546168	0.63448386
85.85	0.29506178	14.57737847	-6.9706063	1.09887111	1.27671118
85.86	0.29471962	13.93466863	-6.30731658	1.04518109	1.95074508
85.87	0.2943846	13.3317371	-5.69056807	1.00400727	2.58617767
85.88	0.29405739	12.7721277	-5.11576866	0.97118249	3.18688817
85.89	0.29373531	12.2578469	-4.58122243	0.94463002	3.75408453
85.9	0.29340949	11.83207657	-4.09381042	0.92510021	4.33308735
85.91	0.29308959	11.3934504	-3.63165346	0.90533021	4.81750712
85.92	0.29275969	11.04432731	-3.21286302	0.89006065	5.31841641
85.93	0.29243733	10.67877626	-2.81402522	0.87195006	5.72778657
85.94	0.29210234	10.39366389	-2.45300037	0.85738141	6.15446149
85.95	0.29177162	10.08839387	-2.10813587	0.84080503	6.4988814
85.96	0.29144383	9.84926764	-1.79168461	0.82588172	6.86314502
85.97	0.29112723	9.58657316	-1.48680212	0.8102675	7.15954607
85.98	0.29081907	9.37794156	-1.2061305	0.79860513	7.48041636
85.99	0.29053493	9.14255322	-0.93353043	0.78792506	7.74711777
86	0.29027649	8.9215533	-0.67573834	0.78104044	8.01041518
86.01	0.29004624	8.74864191	-0.43921372	0.78055759	8.3103693
86.02	0.28986065	8.53344738	-0.20841387	0.78334485	8.55406108
86.03	0.2897094	8.33031264	0.00474537	0.79338694	8.7979383
86.04	0.28960143	8.17435294	0.19461052	0.8114083	9.08180848
86.05	0.28954678	7.9748332	0.37419362	0.83429484	9.30239323
86.06	0.28953452	7.8210745	0.52792748	0.86581155	9.55655885
86.07	0.28957102	7.63706954	0.66949609	0.90185438	9.75989356
86.08	0.28965246	7.46767326	0.78852278	0.94476234	9.9561222
86.09	0.2897696	7.35376541	0.87943269	0.9953905	10.18884828
86.1	0.2899261	7.20111993	0.96067598	1.04825183	10.3553834
86.11	0.290108	7.08935778	1.01826742	1.10727372	10.54308998
86.12	0.29031485	6.959357	1.06663663	1.16691463	10.68473308
86.13	0.29053876	6.84431779	1.10150472	1.22858498	10.82125264
